<svg width="451" height="313" viewBox="0 0 451 313" fill="none" xmlns="http://www.w3.org/2000/svg">
<g clip-path="url(#clip0_2187_9672)">
<path d="M169.963 61.1101C166.528 48.5814 194.231 37.8379 201.506 47.9272C202.518 46.4928 206.256 45.6215 207.971 46.0616C209.687 46.5016 211.129 47.6016 212.537 48.6665C214.472 50.1537 216.477 51.6938 217.665 53.8322C218.861 55.9619 219.046 58.866 217.436 60.7141C216.161 62.1837 212.396 63.1342 210.478 63.5214C209.141 63.7942 208.015 64.0142 207.048 64.1726C206.186 62.9142 205.746 61.3565 205.904 59.834C204.602 60.6965 203.723 62.1749 203.582 63.7414C203.556 64.067 214.393 103.959 214.393 103.959C213.276 104.619 211.895 105.235 210.302 105.798C207.602 101.723 205.385 96.9185 203.925 91.8935C203.591 95 203.644 98.3705 204.048 101.794C204.259 103.615 204.576 105.446 204.981 107.276C192.103 110.057 172.733 109.142 164.306 97.3145C164.305 97.2656 164.304 97.2166 164.302 97.1676C164.242 94.9545 161.224 94.4045 160.416 96.4657C160.212 96.9876 160.023 97.4393 159.856 97.7985C157.401 89.0158 160.577 78.8515 169.963 61.1101Z" fill="#2F2E41"/>
<path d="M345.009 160.461C341.962 164.076 336.562 164.536 332.948 161.488C332.598 161.192 332.272 160.87 331.974 160.522L291.305 173.409L284.977 163.031L333.391 148.079C337.19 145.275 342.541 146.083 345.343 149.883C347.688 153.063 347.55 157.436 345.009 160.461Z" fill="#FFB6B6"/>
<path d="M200.984 128.258C200.984 128.258 218.994 107.992 226.839 116.601C234.684 125.21 259.159 162.934 259.159 162.934L316.293 150.875L321.819 165.96L256.945 186.991C252.068 188.573 246.724 186.933 243.571 182.889L200.984 128.258Z" fill="#FF9F32"/>
<path d="M240.099 313H150.772L150.69 312.302L150.638 311.837L149.871 305.325L148.784 296.052L148.366 292.488C148.337 292.307 148.308 292.133 148.284 291.953C147.918 289.633 147.709 287.301 147.634 284.976C147.523 281.778 147.668 278.586 148.011 275.435V275.418C148.197 273.714 148.436 272.028 148.732 270.359C149.104 268.214 149.551 266.103 150.069 264.039C150.661 261.644 151.335 259.313 152.073 257.063C152.922 254.429 153.852 251.905 154.811 249.522C154.915 249.266 155.02 249.01 155.119 248.76L155.124 248.754C160.18 236.423 165.922 227.998 165.922 227.998H230.999C230.999 227.998 234.009 241.213 235.502 252.126C235.741 253.853 235.938 255.516 236.084 257.063C236.345 259.917 236.421 262.371 236.194 264.039C236.054 265.074 235.799 265.807 235.404 266.144C231.824 269.202 235.921 275.691 235.921 275.691C235.921 275.691 238.989 280.383 236.316 283.022C235.787 283.546 235.485 284.22 235.34 284.976C235.107 286.226 235.311 287.679 235.63 288.964C235.95 290.255 236.392 291.377 236.636 291.953C236.746 292.209 236.816 292.354 236.816 292.354L237.269 295.941L237.711 299.395L238.46 305.325L238.687 306.372L239.855 311.837L239.954 312.302L240.099 313Z" fill="#2F2E41"/>
<path d="M194.978 100.533L167.666 102.967L162.632 118.639L157.146 119.434C147.772 120.792 142.192 130.628 145.835 139.376L150.662 150.969C150.662 150.969 143.571 172.863 152.279 182.062L155.985 222.58L147.626 249.29L245.335 252.445L228.692 218.942L228.198 198.139C228.198 198.139 238.834 160.539 228.973 148.579L225.126 114.561L205.083 111.553L194.978 100.533Z" fill="#FF9F32"/>
<path d="M213.469 80.4255C216.284 68.2808 208.725 56.153 196.585 53.3373C184.446 50.5216 172.324 58.0842 169.509 70.2288C166.695 82.3735 174.254 94.5014 186.393 97.3171C198.532 100.133 210.655 92.5702 213.469 80.4255Z" fill="#FFB6B6"/>
<path d="M157.648 62.8699C154.213 50.3412 181.916 39.5976 189.191 49.687C190.203 48.2526 193.941 47.3813 195.656 47.8213C197.372 48.2613 198.814 49.3614 200.222 50.4262C202.157 51.9135 204.162 53.4535 205.35 55.592C206.546 57.7217 206.731 60.6258 205.121 62.4738C203.846 63.9435 200.081 64.8939 198.163 65.2811C196.826 65.5539 195.7 65.7739 194.733 65.9324C193.871 64.6739 193.431 63.1162 193.589 61.5938C192.287 62.4562 191.408 63.9347 191.267 65.5011C191.241 65.8268 202.078 105.718 202.078 105.718C200.961 106.379 199.58 106.995 197.987 107.558C195.287 103.483 193.07 98.6783 191.61 93.6533C191.276 96.7598 191.329 100.13 191.733 103.554C191.944 105.375 192.261 107.206 192.666 109.036C179.788 111.817 160.418 110.902 151.992 99.0743C151.99 99.0253 151.989 98.9764 151.987 98.9274C151.927 96.7142 148.909 96.1643 148.101 98.2255C147.897 98.7473 147.709 99.199 147.541 99.5583C145.086 90.7756 148.262 80.6112 157.648 62.8699Z" fill="#2F2E41"/>
<path d="M350.522 312.302H47.1656L0.0930176 312.884L330.218 293.166C341.231 292.508 350.522 301.265 350.522 312.302Z" fill="#3F3D56"/>
<path d="M424.816 311.837V313H0V0H1.16229V311.837H424.816Z" fill="#3F3D56"/>
<path d="M379.36 72.3957H302.038C300.255 72.3957 298.804 70.9495 298.804 69.1721C298.804 67.3948 300.255 65.9492 302.038 65.9492H379.36C381.143 65.9492 382.593 67.3948 382.593 69.1721C382.593 70.9495 381.143 72.3957 379.36 72.3957Z" fill="#FF9F32"/>
<path d="M340.67 82.7922C340.381 82.0796 339.383 82.0797 339.094 82.7924C337.078 87.7645 334.208 93.3328 331.086 97.5881C330.586 98.2694 331.275 99.1798 332.069 98.8923L338.761 96.4701V137.915H341.002V96.4701L347.696 98.8926C348.49 99.18 349.179 98.2697 348.68 97.5884C345.558 93.333 342.687 87.7645 340.67 82.7922Z" fill="#3F3D56"/>
<path d="M449.007 96.0877H401.335C400.236 96.0877 399.342 95.1961 399.342 94.1003C399.342 93.0045 400.236 92.1133 401.335 92.1133H449.007C450.106 92.1133 451 93.0045 451 94.1003C451 95.1961 450.106 96.0877 449.007 96.0877Z" fill="#F2F2F2"/>
<path d="M425.153 102.497C424.975 102.058 424.359 102.058 424.181 102.498C422.938 105.563 421.169 108.996 419.244 111.619C418.936 112.04 419.361 112.601 419.851 112.424L423.976 110.93V136.482H425.358V110.93L429.485 112.424C429.975 112.601 430.399 112.04 430.091 111.62C428.166 108.996 426.397 105.563 425.153 102.497Z" fill="#F2F2F2"/>
<path d="M425.179 161.137C430.9 161.137 435.537 156.497 435.537 150.774C435.537 145.05 430.9 140.41 425.179 140.41C419.458 140.41 414.82 145.05 414.82 150.774C414.82 156.497 419.458 161.137 425.179 161.137Z" fill="#F2F2F2"/>
<path d="M296.166 37.365H248.495C247.395 37.365 246.501 36.4734 246.501 35.3776C246.501 34.2818 247.395 33.3906 248.495 33.3906H296.166C297.265 33.3906 298.159 34.2818 298.159 35.3776C298.159 36.4734 297.265 37.365 296.166 37.365Z" fill="#F2F2F2"/>
<path d="M272.312 43.7748C272.134 43.3354 271.519 43.3355 271.341 43.7749C270.098 46.8404 268.328 50.2733 266.404 52.8968C266.095 53.3169 266.52 53.8781 267.01 53.7009L271.136 52.2076V77.7595H272.517V52.2075L276.644 53.7011C277.134 53.8783 277.559 53.317 277.251 52.897C275.326 50.2734 273.556 46.8404 272.312 43.7748Z" fill="#F2F2F2"/>
<path d="M272.338 102.414C278.059 102.414 282.697 97.7744 282.697 92.0509C282.697 86.3273 278.059 81.6875 272.338 81.6875C266.617 81.6875 261.979 86.3273 261.979 92.0509C261.979 97.7744 266.617 102.414 272.338 102.414Z" fill="#F2F2F2"/>
<path d="M152.241 292.859C154.685 288.811 153.387 283.548 149.341 281.102C148.949 280.865 148.539 280.66 148.114 280.489L147.256 237.819L135.401 235.154L136.79 285.827C135.355 290.326 137.838 295.137 142.335 296.572C146.098 297.773 150.193 296.238 152.241 292.859Z" fill="#FFB6B6"/>
<path d="M160.488 124.507C160.488 124.507 145.96 121.019 141.311 130.903C136.662 140.787 136.266 183.797 136.266 183.797L133.756 271.022L152.185 270.209L166.881 162.88L160.488 124.507Z" fill="#FF9F32"/>
<path d="M153.967 305.73C154.294 306.141 154.791 306.378 155.315 306.376H249.658C250.617 306.375 251.393 305.596 251.392 304.637C251.392 304.518 251.38 304.399 251.355 304.283L249.891 297.323C249.767 296.747 249.361 296.272 248.81 296.062C248.614 295.985 248.405 295.945 248.194 295.945H156.774C156.563 295.945 156.354 295.985 156.158 296.062C155.607 296.272 155.201 296.747 155.077 297.323L153.613 304.283C153.507 304.794 153.637 305.326 153.967 305.73Z" fill="#CCCCCC"/>
<path d="M117.849 149.936V258.81C117.851 261.699 120.192 264.04 123.079 264.043H284.347C287.234 264.04 289.575 261.699 289.577 258.81V149.936C289.57 147.05 287.231 144.713 284.347 144.709H123.079C120.195 144.713 117.856 147.05 117.849 149.936Z" fill="#E6E6E6"/>
<path d="M223.88 240.761C223.688 240.697 223.484 240.668 223.281 240.668H185.553C184.443 240.668 183.537 241.569 183.537 242.68V302.309H225.292V242.68C225.292 241.802 224.722 241.023 223.88 240.761ZM208.747 270.087C208.735 272.552 206.73 274.541 204.266 274.529C201.819 274.512 199.843 272.535 199.832 270.087V263.168C199.855 260.709 201.872 258.732 204.33 258.756C206.759 258.779 208.723 260.744 208.747 263.168V270.087Z" fill="#CCCCCC"/>
</g>
<defs>
<clipPath id="clip0_2187_9672">
<rect width="451" height="313" fill="white"/>
</clipPath>
</defs>
</svg>
